Coordinates
version=1
nRows=54
nColumns=12
inDegrees=yes

Units are S.I. units (second, meters, Newtons, ...)
Angles are in degrees

endheader
time	SC_y	SC_z	SC_x	AC_y	AC_z	AC_x	GH_y	GH_z	GH_yy	EL_x	PS_y
       0.0              -53.13          38.63          78.28          51.35          3.169          10.52          110.4          85.23         -135.4          59.92          69.09
   0.03974              -53.13          38.63          78.27          51.36          3.168          10.52          110.4          85.22         -135.4          59.93          69.09
   0.07948              -53.13          38.63          78.26          51.36          3.168          10.51          110.4          85.21         -135.4          59.94          69.08
    0.1192              -53.13          38.63          78.24          51.36          3.168          10.51          110.4          85.19         -135.4          59.95          69.08
     0.159              -53.13          38.63          78.23          51.36          3.167           10.5          110.3          85.18         -135.4          59.97          69.08
    0.1987              -53.13          38.63          78.22          51.36          3.167           10.5          110.3          85.16         -135.4          59.98          69.07
    0.2384              -53.13          38.63           78.2          51.36          3.166          10.49          110.3          85.15         -135.4           60.0          69.07
    0.2782              -53.13          38.63          78.18          51.37          3.166          10.49          110.3          85.13         -135.4          60.01          69.06
    0.3179              -53.13          38.63          78.17          51.37          3.165          10.48          110.2          85.11         -135.4          60.03          69.06
    0.3577              -53.12          38.63          78.15          51.37          3.165          10.48          110.2          85.09         -135.4          60.05          69.05
    0.3974              -53.12          38.63          78.13          51.37          3.164          10.47          110.2          85.07         -135.3          60.07          69.05
    0.4371              -53.12          38.63           78.1          51.38          3.163          10.46          110.2          85.04         -135.3          60.09          69.04
    0.4769              -53.12          38.63          78.08          51.38          3.163          10.45          110.1          85.02         -135.3          60.12          69.04
    0.5166              -53.12          38.63          78.06          51.38          3.162          10.45          110.1          84.99         -135.3          60.14          69.03
    0.5564              -53.12          38.63          78.03          51.39          3.161          10.44          110.0          84.96         -135.3          60.17          69.02
    0.5961              -53.12          38.63           78.0          51.39           3.16          10.43          110.0          84.93         -135.3           60.2          69.01
    0.6358              -53.12          38.62          77.97           51.4          3.159          10.42          110.0          84.89         -135.2          60.23           69.0
    0.6756              -53.12          38.62          77.93           51.4          3.158          10.41          109.9          84.85         -135.2          60.27          68.99
    0.7153              -53.11          38.62          77.89          51.41          3.157          10.39          109.9          84.81         -135.2           60.3          68.98
    0.7551              -53.11          38.62          77.85          51.41          3.156          10.38          109.8          84.76         -135.2          60.35          68.97
    0.7948              -53.11          38.62           77.8          51.42          3.154          10.36          109.7          84.71         -135.1          60.39          68.96
    0.8345              -53.11          38.62          77.75          51.43          3.153          10.35          109.7          84.66         -135.1          60.44          68.95
    0.8743               -53.1          38.62           77.7          51.43          3.151          10.33          109.6          84.59         -135.1           60.5          68.93
     0.914               -53.1          38.62          77.63          51.44          3.149          10.31          109.5          84.53         -135.0          60.56          68.91
    0.9538               -53.1          38.62          77.56          51.45          3.147          10.28          109.4          84.45         -135.0          60.63          68.89
    0.9935               -53.1          38.62          77.49          51.46          3.145          10.26          109.3          84.36         -135.0          60.71          68.87
     1.033              -53.09          38.61           77.4          51.47          3.142          10.23          109.2          84.27         -134.9          60.79          68.85
     1.073              -53.09          38.61           77.3          51.49          3.139           10.2          109.0          84.16         -134.8          60.89          68.82
     1.113              -53.08          38.61          77.19           51.5          3.136          10.16          108.9          84.04         -134.8           61.0          68.79
     1.152              -53.08          38.61          77.07          51.52          3.132          10.12          108.7           83.9         -134.7          61.12          68.76
     1.192              -53.07          38.61          76.93          51.54          3.128          10.07          108.5          83.74         -134.6          61.27          68.72
     1.232              -53.06           38.6          76.76          51.56          3.123          10.02          108.2          83.56         -134.5          61.43          68.67
     1.272              -53.05           38.6          76.57          51.59          3.117          9.959          108.0          83.36         -134.4          61.62          68.62
     1.311              -53.04           38.6          76.35          51.62          3.111          9.887          107.7          83.11         -134.3          61.84          68.56
     1.351              -53.03          38.59          76.09          51.65          3.103          9.802          107.3          82.83         -134.1          62.09          68.49
     1.391              -53.02          38.59          75.79           51.7          3.094          9.703          106.9           82.5         -133.9           62.4           68.4
     1.431               -53.0          38.58          75.43          51.75          3.083          9.584          106.4           82.1         -133.7          62.76           68.3
      1.47              -52.98          38.57           75.0          51.81           3.07          9.442          105.7          81.63         -133.5          63.19          68.18
      1.51              -52.96          38.56          74.48          51.88          3.055          9.271          105.0          81.05         -133.2          63.71          68.04
      1.55              -52.93          38.55          73.84          51.96          3.036          9.061          104.1          80.35         -132.8          64.34          67.86
      1.59               -52.9          38.54          73.05          52.07          3.012          8.802          103.0          79.48         -132.3          65.13          67.64
     1.629              -52.85          38.52          72.07          52.21          2.982           8.48          101.6           78.4         -131.7          66.11          67.37
     1.669               -52.8           38.5          70.83          52.38          2.945          8.073          99.82          77.04         -131.0          67.34          67.03
     1.709              -52.73          38.47          69.26           52.6          2.898          7.556          97.58          75.31         -130.1          68.91          66.59
     1.749              -52.64          38.44          67.24          52.87          2.838          6.895          94.72          73.09         -128.9          70.91          66.04
     1.788              -52.52          38.39          64.66          53.23           2.76          6.046          91.05          70.24         -127.3          73.49          65.32
     1.828              -52.38          38.33          61.36          53.68          2.661          4.962          86.36          66.61         -125.4          76.78          64.41
     1.868              -52.19          38.26           57.2          54.25          2.537          3.599          80.47          62.04         -122.9          80.92          63.26
     1.908              -51.97          38.17          52.14          54.95          2.385          1.938          73.28          56.48         -119.9          85.96          61.86
     1.947              -51.71          38.07          46.28          55.76           2.21        0.01232          64.95          50.02         -116.4           91.8          60.24
     1.987              -51.42          37.96          39.93          56.63          2.019         -2.073          55.93          43.04         -112.6          98.12          58.48
     2.027              -51.14          37.85          33.58           57.5          1.829         -4.158          46.91          36.05         -108.8          104.5          56.72
     2.066              -50.88          37.75          27.72          58.31          1.653         -6.083          38.58          29.59         -105.3          110.3           55.1
     2.106              -50.65          37.66          22.66          59.01          1.502         -7.744           31.4          24.03         -102.3          115.3           53.7
